<?xml version="1.0" encoding="utf-8"?>
<!-- Generator: Adobe Illustrator 23.0.0, SVG Export Plug-In . SVG Version: 6.00 Build 0)  -->
<svg version="1.1" id="图层_1" xmlns="http://www.w3.org/2000/svg" xmlns:xlink="http://www.w3.org/1999/xlink" x="0px" y="0px"
	 viewBox="0 0 16 16" style="enable-background:new 0 0 16 16;" xml:space="preserve">
<style type="text/css">
	.st0{fill:#3B5998;}
	.st1{fill:#FFFFFF;}
</style>
<path id="XMLID_1056_" class="st0" d="M13,16H3c-1.65,0-3-1.35-3-3L0,3c0-1.65,1.35-3,3-3l10,0c1.65,0,3,1.35,3,3v10
	C16,14.65,14.65,16,13,16z"/>
<path id="XMLID_1053_" class="st1" d="M8,16V9H6V7h2V6c0-1.65,1.35-3,3-3h2v2h-2c-0.55,0-1,0.45-1,1v1h3l-0.5,2H10v7H8z"/>
</svg>
