<?xml version="1.0" encoding="utf-8"?>
<!-- Generator: Adobe Illustrator 23.0.0, SVG Export Plug-In . SVG Version: 6.00 Build 0)  -->
<svg version="1.1" id="图层_1" xmlns="http://www.w3.org/2000/svg" xmlns:xlink="http://www.w3.org/1999/xlink" x="0px" y="0px"
	 viewBox="0 0 16 16" style="enable-background:new 0 0 16 16;" xml:space="preserve">
<style type="text/css">
	.st0{fill:#F2F2F2;}
	.st1{fill:#EA4335;}
	.st2{fill:#4285F4;}
	.st3{fill:#FBBC05;}
	.st4{fill:#34A853;}
</style>
<path id="XMLID_1055_" class="st0" d="M13,16H3c-1.65,0-3-1.35-3-3L0,3c0-1.65,1.35-3,3-3l10,0c1.65,0,3,1.35,3,3v10
	C16,14.65,14.65,16,13,16z"/>
<g>
	<path id="Shape" class="st1" d="M8.122,4.245c1.15,0,1.925,0.497,2.367,0.912l1.728-1.687c-1.061-0.986-2.442-1.592-4.095-1.592
		c-2.395,0-4.463,1.374-5.469,3.374l1.98,1.537C5.129,5.313,6.503,4.245,8.122,4.245z"/>
	<path class="st2" d="M14,8.136c0-0.503-0.041-0.871-0.129-1.252H8.122v2.272h3.374c-0.068,0.565-0.435,1.415-1.252,1.986
		l1.932,1.497C13.333,11.571,14,10,14,8.136z"/>
	<path class="st3" d="M4.639,9.211C4.51,8.83,4.435,8.422,4.435,8c0-0.422,0.075-0.83,0.197-1.211l-1.98-1.537
		C2.238,6.082,2,7.014,2,8s0.238,1.918,0.653,2.748L4.639,9.211z"/>
	<path class="st4" d="M8.122,14.122c1.653,0,3.041-0.544,4.054-1.483l-1.932-1.497c-0.517,0.361-1.211,0.612-2.122,0.612
		c-1.619,0-2.993-1.068-3.483-2.544l-1.98,1.537C3.667,12.748,5.728,14.122,8.122,14.122z"/>
</g>
</svg>
