<?xml version="1.0" encoding="utf-8"?>
<!-- Generator: Adobe Illustrator 23.0.0, SVG Export Plug-In . SVG Version: 6.00 Build 0)  -->
<svg version="1.1" id="图层_1" xmlns="http://www.w3.org/2000/svg" xmlns:xlink="http://www.w3.org/1999/xlink" x="0px" y="0px"
	 viewBox="0 0 16 16" style="enable-background:new 0 0 16 16;" xml:space="preserve">
<style type="text/css">
	.st0{fill:#0073B0;}
	.st1{fill:#FFFFFF;}
</style>
<path id="XMLID_1048_" class="st0" d="M13,16H3c-1.65,0-3-1.35-3-3L0,3c0-1.65,1.35-3,3-3l10,0c1.65,0,3,1.35,3,3v10
	C16,14.65,14.65,16,13,16z"/>
<rect id="XMLID_1047_" x="4" y="6" class="st1" width="2" height="7"/>
<circle id="XMLID_1046_" class="st1" cx="5" cy="4" r="1"/>
<path id="XMLID_1045_" class="st1" d="M13,13h-2V9c0-0.553-0.447-1-1-1S9,8.447,9,9v4H7V6h2v1.241C9.412,6.675,10.044,6,10.75,6
	C11.994,6,13,7.119,13,8.5V13z"/>
</svg>
