<svg width="48" height="48" viewBox="0 0 48 48" fill="none" xmlns="http://www.w3.org/2000/svg">
<g clip-path="url(#clip0_63_181)">
<rect width="48" height="48" rx="9.6" fill="black"/>
<path d="M10.2787 39.5862L7.69909 39.5793C7.67949 39.5784 7.66054 39.572 7.64445 39.5608C7.62835 39.5496 7.61578 39.534 7.60818 39.5159C7.60058 39.4978 7.59828 39.478 7.60153 39.4586C7.60479 39.4393 7.61347 39.4212 7.62657 39.4066L20.331 25.6835C20.3472 25.6658 20.3567 25.643 20.358 25.6191C20.3592 25.5952 20.3521 25.5715 20.3379 25.5522L7.64729 8.58303C7.63575 8.56764 7.62872 8.54934 7.62699 8.53018C7.62526 8.51102 7.6289 8.49175 7.63751 8.47455C7.64611 8.45734 7.65934 8.44287 7.6757 8.43275C7.69207 8.42264 7.71093 8.41728 7.73017 8.41728H17.3405C17.3566 8.41728 17.3725 8.42102 17.3869 8.42822C17.4012 8.43541 17.4138 8.44585 17.4234 8.45872L25.7664 19.6299C25.7754 19.6422 25.7869 19.6524 25.8002 19.6597C25.8135 19.667 25.8283 19.6713 25.8434 19.6723C25.8586 19.6733 25.8738 19.671 25.8879 19.6654C25.9021 19.6599 25.9148 19.6513 25.9253 19.6403L36.285 8.45181C36.2946 8.4411 36.3063 8.4325 36.3193 8.42656C36.3324 8.42061 36.3466 8.41745 36.361 8.41728L38.9405 8.40001C38.9611 8.39961 38.9813 8.40535 38.9986 8.41649C39.0159 8.42763 39.0295 8.44366 39.0377 8.46256C39.0458 8.48145 39.0481 8.50234 39.0444 8.52257C39.0406 8.54279 39.0309 8.56144 39.0165 8.57613L27.1823 21.3773C27.1661 21.395 27.1566 21.4177 27.1553 21.4417C27.1541 21.4656 27.1611 21.4892 27.1753 21.5085L40.5739 39.4135C40.5855 39.4289 40.5925 39.4472 40.5942 39.4664C40.5959 39.4856 40.5923 39.5048 40.5837 39.522C40.5751 39.5392 40.5619 39.5537 40.5455 39.5638C40.5291 39.5739 40.5103 39.5793 40.491 39.5793H30.8772C30.8611 39.5793 30.8453 39.5756 30.8309 39.5684C30.8165 39.5612 30.804 39.5507 30.7943 39.5379L21.7434 27.4239C21.7345 27.4116 21.7229 27.4015 21.7096 27.3941C21.6963 27.3868 21.6816 27.3825 21.6664 27.3815C21.6513 27.3805 21.6361 27.3829 21.6219 27.3884C21.6078 27.3939 21.595 27.4025 21.5846 27.4135L10.3546 39.5517C10.3451 39.5624 10.3334 39.571 10.3203 39.5769C10.3072 39.5829 10.293 39.586 10.2787 39.5862ZM31.8718 37.4521C31.8846 37.4693 31.9013 37.4832 31.9205 37.4928C31.9397 37.5024 31.9608 37.5074 31.9823 37.5074L36.2297 37.4935C36.2554 37.4935 36.2805 37.4864 36.3024 37.4729C36.3242 37.4594 36.3418 37.4401 36.3533 37.4172C36.3648 37.3942 36.3696 37.3686 36.3673 37.343C36.365 37.3175 36.3556 37.2931 36.3402 37.2725L16.3909 10.5963C16.378 10.5791 16.3613 10.5652 16.3422 10.5556C16.323 10.546 16.3018 10.541 16.2804 10.541L12.0225 10.5617C11.9972 10.5624 11.9725 10.57 11.9512 10.5837C11.9298 10.5974 11.9127 10.6168 11.9016 10.6396C11.8906 10.6624 11.886 10.6879 11.8885 10.7131C11.8909 10.7384 11.9003 10.7625 11.9155 10.7827L31.8718 37.4521Z" fill="white"/>
</g>
<defs>
<clipPath id="clip0_63_181">
<rect width="48" height="48" fill="white"/>
</clipPath>
</defs>
</svg>
